<svg width="35" height="15" viewBox="0 0 35 15" fill="none" xmlns="http://www.w3.org/2000/svg">
<path d="M0.476074 14.5359V0.576998H4.14797C5.64996 0.576998 6.78444 0.883788 7.55142 1.49737C8.32479 2.10456 8.71147 2.98977 8.71147 4.15302C8.71147 4.99669 8.49736 5.69656 8.06913 6.25261C7.6409 6.80867 7.03691 7.1634 6.25715 7.31679C7.13917 7.43184 7.87419 7.81533 8.4622 8.46725C9.05022 9.11279 9.34422 9.8542 9.34422 10.6915C9.34422 11.8803 8.95754 12.8198 8.18417 13.5101C7.4172 14.194 6.34663 14.5359 4.97247 14.5359H0.476074ZM0.993782 7.64276V14.0182H5.02999C6.21241 14.0182 7.13917 13.7274 7.81027 13.1458C8.48777 12.5578 8.82652 11.7461 8.82652 10.7107C8.82652 9.82864 8.50055 9.1032 7.84862 8.53436C7.19669 7.95913 6.32426 7.66193 5.23132 7.64276H0.993782ZM0.993782 7.12505H4.33971C5.61161 7.12505 6.57033 6.88217 7.21587 6.39642C7.86141 5.90428 8.18417 5.1437 8.18417 4.11467C8.18417 2.13332 6.87712 1.12666 4.26301 1.09471H0.993782V7.12505Z" fill="white"/>
<path d="M22.2102 8.60147C22.2102 9.80946 21.9929 10.88 21.5583 11.8132C21.1301 12.7399 20.5165 13.459 19.7176 13.9703C18.9186 14.4752 17.9983 14.7277 16.9565 14.7277C15.3842 14.7277 14.1123 14.1684 13.1408 13.0499C12.1692 11.9314 11.6835 10.423 11.6835 8.52478V6.51147C11.6835 5.30987 11.8976 4.2425 12.3258 3.30935C12.7605 2.37619 13.3772 1.65715 14.1762 1.15223C14.9815 0.640912 15.9019 0.385254 16.9373 0.385254C17.9791 0.385254 18.8995 0.640912 19.6984 1.15223C20.5037 1.65715 21.1237 2.37939 21.5583 3.31893C21.9929 4.25209 22.2102 5.31627 22.2102 6.51147V8.60147ZM21.6925 6.49229C21.6925 4.80495 21.2643 3.45315 20.4078 2.43691C19.5514 1.41428 18.3945 0.902962 16.9373 0.902962C15.4992 0.902962 14.3519 1.41108 13.4955 2.42733C12.639 3.43718 12.2108 4.81454 12.2108 6.5594V8.60147C12.2108 9.71359 12.4025 10.6979 12.786 11.5543C13.1759 12.4044 13.7288 13.0595 14.4446 13.5197C15.1605 13.9799 15.9977 14.21 16.9565 14.21C18.4137 14.21 19.5674 13.7019 20.4174 12.6856C21.2675 11.6694 21.6925 10.2824 21.6925 8.52478V6.49229Z" fill="white"/>
<path d="M29.1322 7.01L33.6382 0.576998H34.2901L29.4581 7.41266L34.4722 14.5359H33.8299L29.1322 7.81533L24.4153 14.5359H23.7921L28.8062 7.41266L23.9743 0.576998H24.6262L29.1322 7.01Z" fill="white"/>
</svg>
