<svg width="68" height="15" viewBox="0 0 68 15" fill="none" xmlns="http://www.w3.org/2000/svg">
<path d="M9.01196 11.9378H4.40052L3.5952 14.5455H0L5.11956 0.586585H8.28333L13.4412 14.5455H9.82687L9.01196 11.9378ZM5.20584 9.33969H8.20663L6.70145 4.49816L5.20584 9.33969Z" fill="#656980"/>
<path d="M25.5499 9.81905C25.5051 10.7906 25.2431 11.6502 24.7637 12.398C24.2844 13.1394 23.6101 13.7146 22.7408 14.1237C21.878 14.5328 20.8905 14.7373 19.7784 14.7373C17.944 14.7373 16.4996 14.1397 15.445 12.9445C14.3904 11.7493 13.8631 10.0619 13.8631 7.88244V7.19216C13.8631 5.82439 14.0996 4.62918 14.5725 3.60655C15.0519 2.57752 15.739 1.78498 16.6338 1.22893C17.5286 0.666478 18.564 0.385254 19.74 0.385254C21.4338 0.385254 22.7951 0.832656 23.8242 1.72746C24.8532 2.61587 25.438 3.84303 25.5786 5.40894H22.2231C22.1975 4.55888 21.9834 3.94849 21.5808 3.57779C21.1781 3.20708 20.5645 3.02173 19.74 3.02173C18.9027 3.02173 18.2892 3.33491 17.8993 3.96128C17.5094 4.58764 17.3049 5.5879 17.2857 6.96207V7.94955C17.2857 9.43876 17.4711 10.5029 17.8418 11.1421C18.2189 11.7812 18.8644 12.1008 19.7784 12.1008C20.5517 12.1008 21.143 11.9186 21.552 11.5543C21.9611 11.19 22.1784 10.6116 22.2039 9.81905H25.5499Z" fill="#656980"/>
<path d="M37.8119 3.18471H33.6223V14.5455H30.2572V3.18471H26.1443V0.586585H37.8119V3.18471Z" fill="#656980"/>
<path d="M42.826 14.5455H39.4705V0.586585H42.826V14.5455Z" fill="#656980"/>
<path d="M50.582 10.749L53.3623 0.586585H57.1205L52.4228 14.5455H48.7413L44.0819 0.586585H47.8113L50.582 10.749Z" fill="#656980"/>
<path d="M66.8035 8.63024H61.5114V11.957H67.7623V14.5455H58.1463V0.586585H67.7814V3.18471H61.5114V6.12798H66.8035V8.63024Z" fill="#656980"/>
</svg>
